<svg width="96" height="137" viewBox="0 0 96 137" fill="none" xmlns="http://www.w3.org/2000/svg">
<path d="M15.8491 117.342C15.8491 117.342 0.819165 109.161 4.90438 94.3996C8.9896 79.6386 15.0098 72.2102 8.65721 57.354C2.30457 42.4979 7.8752 8.69966 27.189 16.1281C37.5882 -6.89989 74.7289 -5.78548 81.4146 22.8131C95.5281 26.5273 89.9568 62.5536 82.1573 77.4098C74.3579 92.2666 100.631 104.151 83.5945 124.579" fill="#4E4E4E"/>
<path d="M48.4386 99.3231L34.5107 100.066C34.5107 100.066 0.712494 101.551 0.712494 136.051H95.7593C95.7593 136.051 92.0789 101.551 62.3666 100.415C47.8814 104.129 48.4386 99.3231 48.4386 99.3231Z" fill="white"/>
<path d="M18.7762 47.1839V57.5562C11.2278 65.0095 7.6867 52.4435 9.92377 47.0287C10.252 46.2081 10.7272 45.5516 11.3319 45.1544C15.9523 42.1056 18.7762 47.1839 18.7762 47.1839Z" fill="#FFB3AC"/>
<path d="M18.7762 50.2413V57.5559C11.2278 65.0099 7.6867 52.4432 9.92377 47.0284C9.94998 47.0202 9.97549 47.0202 10.0017 47.0112C12.4981 46.545 15.2441 46.9595 17.2219 48.5573C17.8266 49.0407 18.3356 49.6103 18.7762 50.2413Z" fill="#FF887B"/>
<path d="M77.9825 47.1839V57.5562C85.531 65.0095 89.0714 52.4435 86.835 47.0287C86.5061 46.2081 86.0316 45.5516 85.4268 45.1544C80.8065 42.1056 77.9825 47.1839 77.9825 47.1839Z" fill="#FFB3AC"/>
<path d="M77.9825 50.2413V57.5559C85.531 65.0099 89.0714 52.4432 86.835 47.0284C86.8088 47.0202 86.7826 47.0202 86.7571 47.0112C84.2607 46.545 81.5147 46.9595 79.5369 48.5573C78.9321 49.0407 78.4232 49.6103 77.9825 50.2413Z" fill="#FF887B"/>
<path d="M36.1086 75.1816L34.5107 100.066C34.5107 100.066 36.1223 111.58 48.3159 111.209C60.5095 110.837 62.3666 100.415 62.3666 100.415L60.5095 76.667" fill="#FFB3AC"/>
<path d="M37.1113 82.6379C37.1113 82.6379 38.7829 91.3303 48.8125 91.1635C58.8428 90.9966 59.3442 83.4737 59.3442 83.4737L37.1113 82.6379Z" fill="#FF887B"/>
<path d="M17.426 45.8404C17.426 45.8404 13.7083 78.7269 38.532 85.5719C63.3564 92.417 85.1686 73.5011 79.1511 43.0909C69.0877 41.2269 68.8573 29.2299 68.8573 29.2299C68.8573 29.2299 34.5109 47.6637 31.7621 29.2299C31.0098 39.7608 17.426 45.8404 17.426 45.8404Z" fill="#FFB3AC"/>
<path d="M37.1952 47.7149C37.1952 49.3976 36.2298 50.7616 35.0395 50.7616C33.8485 50.7616 32.8838 49.3976 32.8838 47.7149C32.8838 46.0323 33.8485 44.6683 35.0395 44.6683C36.2298 44.6683 37.1952 46.0323 37.1952 47.7149Z" fill="#442D50"/>
<path d="M59.8296 47.7149C59.8296 49.3976 60.7944 50.7616 61.9853 50.7616C63.1763 50.7616 64.141 49.3976 64.141 47.7149C64.141 46.0323 63.1763 44.6683 61.9853 44.6683C60.7944 44.6683 59.8296 46.0323 59.8296 47.7149Z" fill="#442D50"/>
<path d="M49.4266 43.8076C47.5488 43.8372 43.1256 57.7217 44.0594 59.1223C44.9931 60.5222 54.0938 60.7553 54.7937 58.8885C55.4937 57.0218 51.2933 43.7779 49.4266 43.8076Z" fill="#FF887B"/>
<path d="M28.0748 42.2761C27.9113 42.2761 27.7479 42.2189 27.6169 42.1023C27.3334 41.8493 27.3065 41.4169 27.5576 41.1321C27.7134 40.9555 31.4531 36.8455 38.9264 39.5391C39.2843 39.6687 39.4698 40.0639 39.3408 40.4225C39.2119 40.7804 38.8174 40.9652 38.4581 40.8369C31.9055 38.4723 28.7216 41.8996 28.5892 42.0472C28.4527 42.1989 28.2637 42.2761 28.0748 42.2761Z" fill="#4E4E4E"/>
<path d="M69.3632 42.2782C69.1735 42.2782 68.9839 42.2003 68.848 42.0479C68.7156 41.9003 65.5311 38.473 58.9791 40.8369C58.6205 40.9652 58.2261 40.7804 58.0964 40.4225C57.9675 40.0639 58.153 39.6687 58.5116 39.5391C65.9841 36.8441 69.7245 40.9562 69.8804 41.1321C70.1321 41.4176 70.1045 41.8534 69.819 42.1058C69.688 42.221 69.5252 42.2782 69.3632 42.2782Z" fill="#4E4E4E"/>
<path d="M49.4495 49.9702C55.3111 50.0992 59.095 57.0662 68.8398 60.246C76.3151 62.6851 80.1003 69.4881 71.321 79.5246C61.9789 90.2045 34.7354 90.8293 25.0375 78.9288C16.0616 67.9144 25.9346 60.9839 31.0281 59.3626C37.7151 57.2345 44.7195 49.8661 49.4495 49.9702Z" fill="white"/>
<path d="M28.8765 62.6343C28.7586 62.6343 28.6434 62.5737 28.5793 62.4647L17.6608 43.9833C17.5642 43.8192 17.6187 43.6075 17.7828 43.5109C17.947 43.4151 18.1587 43.4682 18.2552 43.6323L29.173 62.1144C29.2696 62.2778 29.2158 62.4895 29.0517 62.5868C28.9965 62.6192 28.9358 62.6343 28.8765 62.6343Z" fill="white"/>
<path d="M67.4573 62.6343C67.396 62.6343 67.3339 62.6178 67.2774 62.5833C67.1146 62.484 67.0643 62.2716 67.1636 62.1089L79.8668 41.4083C79.9661 41.2456 80.1785 41.1959 80.3412 41.2945C80.5033 41.3945 80.5543 41.6069 80.455 41.769L67.7518 62.4702C67.687 62.5764 67.5732 62.6343 67.4573 62.6343Z" fill="white"/>
</svg>
