<svg width="321" height="658" viewBox="0 0 321 658" fill="none" xmlns="http://www.w3.org/2000/svg">
<path d="M30.3193 236.198C33.8296 229.484 37.4437 222.595 39.4301 215.023C40.336 211.55 40.8738 207.912 40.8738 204.275C40.8738 199.967 40.1189 195.655 38.3166 191.654C36.0141 186.544 33.74 181.76 31.9848 176.886C30.2297 172.012 28.9841 167.048 28.6869 161.524C28.6538 160.924 28.6397 160.32 28.6397 159.721C28.6397 154.225 29.9607 148.714 32.2868 143.623C34.6128 138.537 37.9486 133.88 41.926 130.101C45.1437 127.039 48.8853 124.382 52.5937 121.551C56.3022 118.716 59.9776 115.701 62.9878 111.851C65.4554 108.704 67.0926 105.26 68.0975 101.693C69.1072 98.1258 69.4988 94.4315 69.4988 90.723C69.4988 87.76 69.2488 84.7876 68.8619 81.8576C68.3146 77.6726 67.9985 73.431 67.9985 69.2083C67.9985 59.3049 69.7206 49.5336 74.099 40.8711C79.7372 29.708 88.4893 21.4795 98.9117 15.8554C109.334 10.2408 121.417 7.25897 133.6 6.67865C135.01 6.61258 136.421 6.57959 137.832 6.57959C151.977 6.57959 165.999 9.89172 179.625 14.8363C193.251 19.781 206.467 26.3581 218.998 32.8267C226.773 36.8418 233.662 40.4229 239.621 44.9098C245.58 49.3968 250.643 54.766 254.889 62.4991C260.31 72.3789 263.179 83.6741 263.179 94.9458C263.179 98.4136 262.905 101.877 262.358 105.297C261.853 108.435 261.131 111.728 260.527 115.069C259.923 118.409 259.437 121.797 259.437 125.147C259.437 127.237 259.626 129.313 260.107 131.346C260.588 133.38 261.367 135.371 262.523 137.253C263.537 138.919 264.773 140.358 266.132 141.637C268.175 143.552 270.492 145.109 272.837 146.543C275.191 147.978 277.574 149.289 279.772 150.681C288.194 156.003 294.979 163.661 299.659 172.489C304.335 181.316 306.897 191.305 306.897 201.241C306.897 206.403 306.208 211.545 304.774 216.514C304.061 218.976 303.17 221.444 302.325 223.973C301.476 226.497 300.674 229.087 300.16 231.8C299.754 233.952 299.56 236.132 299.56 238.311C299.56 243.964 300.881 249.602 303.34 254.679C304.137 256.325 305.151 257.774 306.194 259.109C307.76 261.109 309.388 262.883 310.563 264.648C311.148 265.53 311.625 266.408 311.95 267.3C312.276 268.196 312.46 269.111 312.46 270.121C312.46 270.805 312.375 271.541 312.177 272.343L315.385 273.131C315.64 272.089 315.762 271.084 315.762 270.121C315.767 268.224 315.286 266.512 314.559 264.992C313.46 262.704 311.846 260.803 310.304 258.934C308.756 257.071 307.279 255.245 306.312 253.24C304.071 248.606 302.858 243.449 302.863 238.311C302.863 236.334 303.042 234.358 303.406 232.414C303.873 229.946 304.623 227.497 305.453 225.02C306.284 222.543 307.194 220.033 307.944 217.429C309.468 212.149 310.2 206.695 310.2 201.241C310.2 190.738 307.501 180.24 302.575 170.941C297.649 161.646 290.492 153.55 281.537 147.888C278.451 145.944 275.215 144.241 272.351 142.316C270.916 141.358 269.581 140.344 268.397 139.23C267.208 138.112 266.179 136.9 265.34 135.531C264.377 133.965 263.735 132.318 263.325 130.587C262.914 128.855 262.74 127.034 262.74 125.147C262.74 122.118 263.188 118.914 263.778 115.654C264.363 112.398 265.094 109.086 265.618 105.821C266.194 102.221 266.481 98.5835 266.481 94.9458C266.477 83.1127 263.476 71.289 257.781 60.909C253.318 52.7655 247.868 46.9764 241.603 42.2677C235.342 37.5589 228.288 33.9071 220.513 29.8919C207.953 23.4092 194.615 16.7661 180.753 11.7318C166.891 6.7023 152.496 3.27689 137.832 3.27689C136.374 3.27689 134.906 3.30997 133.444 3.38074C120.832 3.98465 108.277 7.06082 97.3453 12.9491C86.4181 18.8373 77.1186 27.5612 71.1502 39.3849C66.4792 48.6325 64.6958 58.9322 64.6958 69.2083C64.6958 73.5962 65.0213 77.9793 65.5875 82.287C65.9602 85.1132 66.1961 87.944 66.1961 90.723C66.1961 94.2003 65.8281 97.5879 64.9222 100.796C64.0116 104 62.5678 107.024 60.3881 109.817C57.6751 113.295 54.2356 116.144 50.5885 118.928C46.9461 121.717 43.1055 124.429 39.6518 127.704C35.3583 131.785 31.7914 136.777 29.2861 142.25C26.7807 147.728 25.337 153.691 25.337 159.721C25.337 160.382 25.3558 161.042 25.3889 161.703C25.705 167.619 27.0496 172.927 28.8803 178.004C30.7109 183.085 33.0228 187.94 35.3064 193.012C36.8823 196.509 37.5711 200.349 37.5711 204.275C37.5711 207.587 37.0804 210.951 36.2311 214.187C34.3816 221.274 30.9091 227.955 27.3941 234.669L30.3193 236.198Z" fill="#192C4A"/>
<path d="M195.544 305.097C210.152 313.358 225.434 320.596 241.598 325.248C254.356 328.918 267.836 330.952 280.929 328.753C294.017 326.555 306.708 319.704 313.918 308.56C325.958 289.942 319.872 264.369 306.874 246.403C302.269 240.033 296.701 233.857 295.291 226.129C293.743 217.693 297.47 209.309 299.07 200.882C301.811 186.445 297.961 170.889 288.803 159.4C279.372 147.567 264.575 139.65 259.079 125.547C253.823 112.068 258.649 96.88 257.295 82.4755C255.903 67.6511 247.34 53.8788 236.965 43.5932C223.853 30.5947 206.438 25.5652 192.643 14.237C183.428 6.66434 172.708 2.14908 160.861 0.672302C125.673 -3.71558 83.6723 13.4301 74.4483 50.4723C70.4426 66.5518 75.5759 85.0799 68.7016 100.343C64.0259 110.723 54.316 117.81 47.3284 126.803C37.241 139.796 33.0607 157.206 36.1558 173.366C38.0053 183.01 42.313 192.536 40.8598 202.25C38.9112 215.296 27.2621 224.619 22.1712 236.787C15.2214 253.405 22.0533 273.622 35.4198 285.691C48.7863 297.765 67.3711 302.657 85.3802 303.039C95.4676 303.252 105.583 302.181 115.402 299.85C129.868 296.42 144.277 290.093 159.399 290.612C174.6 291.131 182.621 297.793 195.544 305.097Z" fill="#192C4A"/>
<path d="M199.833 262.591C211.916 265.224 225.278 260.812 233.421 251.503C241.565 242.199 244.16 228.37 239.947 216.74C234.851 202.689 221.145 192.852 217.007 178.49C212.435 162.613 214.728 145.892 202.503 133.016C194.94 125.052 184.843 119.971 174.6 116.008C162.8 111.436 150.505 108.142 137.997 106.194C132.613 105.354 126.64 104.887 122.167 108.001C118.294 110.695 116.487 115.451 115.199 119.994C112.986 127.803 111.665 135.861 111.278 143.972C110.82 153.507 111.566 163.467 107.683 172.186C102.167 184.586 88.4091 191.88 83.2144 204.416C77.9018 217.231 83.455 232.819 94.0378 241.798C104.616 250.772 119.148 253.928 133.01 253.433C142.446 253.098 152.099 251.277 161.512 252.777C174.506 254.853 187.014 259.802 199.833 262.591Z" fill="#16273D"/>
<path d="M279.423 438.578C269.251 437.063 264.259 424.003 259.296 412.859C251.648 395.68 245.08 377.553 238.942 359.7C230.232 334.387 224.636 308.079 219.059 281.85C215.908 267.016 206.49 233.871 219.635 222.005C238.918 228.479 251.827 234.806 262.259 244.511C275.338 256.674 282.042 272.112 288.68 288.38C297.041 308.881 305.118 329.612 310.507 351.179C314.71 368.023 319.547 385.838 318.197 403.564C316.753 422.527 307.728 442.782 279.423 438.578Z" fill="white"/>
<path d="M40.5765 438.578C49.1541 432.902 55.7453 424.003 60.7041 412.859C68.3522 395.68 74.9198 377.553 81.0629 359.7C89.7678 334.387 95.3636 308.079 100.94 281.85C104.092 267.017 114.057 234.197 100.912 222.336C81.6291 228.809 68.1776 234.806 57.7411 244.511C44.6624 256.674 37.9579 272.112 31.3242 288.38C22.9589 308.881 14.8814 329.612 9.49803 351.179C5.28945 368.023 -0.542191 399.082 0.807199 416.808C2.25095 435.771 10.352 458.587 40.5765 438.578Z" fill="white"/>
<path d="M219.088 116.017C233.006 109.742 235.691 128.548 232.685 137.57C231.444 141.297 229.661 144.887 227.061 147.836C223.56 151.799 213.935 158.089 209.057 153.078C206.844 150.804 206.868 147.237 207.042 144.066C207.495 135.569 209.656 120.268 219.088 116.017Z" fill="#E57E67"/>
<path d="M101.578 116.017C87.659 109.742 84.9697 128.548 87.9751 137.57C89.216 141.297 91.0042 144.887 93.6039 147.836C97.1047 151.799 106.73 158.089 111.608 153.078C113.821 150.804 113.793 147.237 113.623 144.066C113.165 135.569 111.009 120.268 101.578 116.017Z" fill="#E57E67"/>
<path d="M291.228 497.904C281.527 400.724 271.954 343.885 261.414 275.726C259.31 262.114 255.205 247.498 249.468 240.529C240.541 229.687 227.604 224.978 214.888 220.222C199.281 214.39 183.003 209.903 166.291 209.035C164.593 208.95 162.904 208.908 161.21 208.898V208.549L161.045 208.894H160.993H160.941L160.776 208.549V208.898H160.705H160.63V208.549L160.465 208.894H160.413H160.361L160.196 208.549V208.898C158.502 208.908 156.813 208.95 155.119 209.035C138.403 209.903 122.13 214.39 106.517 220.222C93.8019 224.978 80.8647 229.687 71.938 240.529C66.2007 247.498 62.096 262.114 59.9917 275.726C49.4513 343.885 39.8782 400.724 30.1777 497.904C24.3177 556.645 17.2311 642.067 20.0525 646.115C25.4548 653.862 87.6541 655.664 96.01 656.452C109.726 657.74 123.521 657.835 137.298 657.929C145.083 657.981 152.892 657.986 160.705 657.929C168.514 657.986 176.322 657.981 184.107 657.929C197.884 657.835 211.68 657.74 225.396 656.452C233.756 655.664 295.951 653.862 301.353 646.115C304.175 642.067 297.088 556.645 291.228 497.904Z" fill="white"/>
<path d="M214.45 215.575L160.597 194.116V193.385L105.96 215.15L160.181 383.441L214.45 215.575Z" fill="#7CCEDC"/>
<path d="M207.533 193.385C207.533 226.035 186.339 252.499 160.196 252.499C134.053 252.499 112.859 226.035 112.859 193.385C112.859 160.731 134.053 134.267 160.196 134.267C186.339 134.267 207.533 160.731 207.533 193.385Z" fill="#5EB0BC"/>
<path d="M199.644 193.385C199.644 220.59 181.984 242.647 160.196 242.647C138.412 242.647 120.747 220.59 120.747 193.385C120.747 166.176 138.412 144.118 160.196 144.118C181.984 144.118 199.644 166.176 199.644 193.385Z" fill="#F89D7D"/>
<path d="M237.54 223.671C235.653 229.979 233.747 236.283 231.808 242.572C229.883 248.866 227.925 255.15 225.966 261.435C224.013 267.724 222.017 273.995 220.045 280.275L214.053 299.091L213.869 299.671L213.256 299.756L203.843 301.086L194.426 302.398L194.742 300.449C199.252 302.676 203.777 304.884 208.278 307.13L209.222 307.602L208.75 308.541C204.787 316.378 200.852 324.234 196.865 332.061C192.878 339.893 188.905 347.725 184.881 355.538C180.88 363.356 176.832 371.155 172.784 378.955C168.721 386.744 164.654 394.534 160.512 402.281C164.253 394.331 168.07 386.419 171.887 378.506C175.723 370.599 179.564 362.696 183.447 354.817C187.301 346.923 191.213 339.058 195.11 331.183C199.007 323.309 202.956 315.462 206.877 307.597L207.349 309.008C202.833 306.791 198.337 304.535 193.826 302.299L190.812 300.803L194.143 300.35L203.565 299.076L212.987 297.821L212.194 298.487L218.408 279.741C220.508 273.504 222.574 267.257 224.693 261.025C226.806 254.787 228.915 248.554 231.057 242.327C233.19 236.099 235.351 229.88 237.54 223.671Z" fill="#EBF7F9"/>
<path d="M82.969 223.671C85.1535 229.88 87.3191 236.099 89.447 242.327C91.589 248.554 93.7028 254.787 95.8118 261.025C97.9302 267.257 100.002 273.504 102.101 279.741L108.315 298.487L107.518 297.821L116.944 299.076L126.362 300.35L129.697 300.803L126.683 302.299C122.172 304.535 117.676 306.791 113.156 309.008L113.628 307.597C117.548 315.462 121.497 323.309 125.395 331.183C129.292 339.058 133.203 346.923 137.063 354.817C140.946 362.696 144.781 370.599 148.617 378.506C152.439 386.419 156.256 394.331 159.997 402.281C155.855 394.534 151.788 386.744 147.721 378.955C143.673 371.155 139.629 363.356 135.628 355.538C131.604 347.725 127.626 339.893 123.644 332.061C119.653 324.234 115.722 316.378 111.759 308.541L111.287 307.602L112.231 307.13C116.732 304.884 121.252 302.676 125.763 300.449L126.083 302.398L116.666 301.086L107.253 299.756L106.64 299.671L106.456 299.091L100.464 280.275C98.4917 273.995 96.4912 267.724 94.5426 261.435C92.5846 255.15 90.6265 248.866 88.6968 242.572C86.7624 236.283 84.8563 229.979 82.969 223.671Z" fill="#EBF7F9"/>
<path d="M113.722 395.322C114.118 380.828 117.435 366.409 123.446 353.212C124.05 351.872 124.748 350.481 125.985 349.693C127.542 348.697 129.547 348.905 131.377 349.159C146.494 351.245 161.588 353.486 176.653 355.921C199.385 359.587 221.937 364.22 244.547 368.598C247.241 369.117 249.987 369.641 252.709 369.287C264.155 367.782 264.019 353.076 264.16 344.47C264.467 325.22 265.109 307.111 263.778 287.904C272.738 295.826 279.659 302.964 285.901 313.165C289.676 319.327 292.398 326.064 294.922 332.83C305.472 361.078 314.89 392.099 317.126 422.248C318.433 439.837 298.046 452.26 282.929 452.105C258.215 451.845 183.81 434.308 160.153 427.566C144.683 423.159 131.967 419.908 117.129 413.694C116.223 413.317 115.265 412.887 114.746 412.052C114.321 411.368 114.265 410.528 114.232 409.722C114.123 407.221 113.656 397.827 113.722 395.322Z" fill="#EBF7F9"/>
<path d="M206.188 409.462C205.533 394.977 201.956 380.62 195.709 367.532C195.077 366.206 194.36 364.828 193.11 364.059C191.534 363.097 189.533 363.337 187.707 363.625C157.908 368.287 75.4815 381.87 47.904 394.09C30.9422 401.611 4.5159 418.431 3.30334 440.05C2.31252 457.658 22.9261 469.713 38.0336 469.283C62.7378 468.576 136.813 449.703 160.347 442.541C175.737 437.856 188.387 434.374 203.112 427.896C204.013 427.5 204.966 427.051 205.466 426.211C205.882 425.518 205.924 424.673 205.943 423.867C206.004 421.366 206.302 411.963 206.188 409.462Z" fill="#EBF7F9"/>
<path d="M99.7469 103.717C99.9922 91.7798 101.799 80.4798 105.008 71.119C118.841 30.7364 169.599 21.4369 199.658 50.9961C233.181 83.9618 221.805 160.929 185.617 187.695C175.94 194.848 160.149 197.73 148.57 194.447C113.533 184.51 98.992 141.009 99.7469 103.717Z" fill="#F89D7D"/>
<path d="M99.8034 61.2488C110.698 19.9745 160.658 7.05145 192.765 34.3742C197.889 38.7338 201.442 43.9332 205.093 49.4959C208.193 54.2093 212.506 57.781 215.242 62.9662C218.05 68.293 219.8 74.1813 220.38 80.1733C220.791 84.4055 222.197 92.1857 221.621 96.366C220.913 101.509 219.932 111.025 219.309 116.177C219.125 110.322 216.606 96.7576 214.841 91.1666C212.709 84.4149 208.835 78.9938 203.494 74.4077C200.942 72.2185 198.13 70.369 195.473 68.3166C194.652 67.6796 190.915 64.3675 188.957 60.9941C176.185 77.7388 154.562 84.3913 135.057 89.2227C118.695 93.2756 101.063 112.436 100.02 115.602C99.8128 111.587 97.2792 70.8172 99.8034 61.2488Z" fill="#E57E67"/>
<path d="M100.02 115.602C98.9304 114.403 96.812 107.307 96.2364 105.571C94.5709 100.546 92.4713 96.2858 91.5465 91.0487C89.4186 78.9466 86.885 78.4748 86.885 66.1651C87.1304 50.1612 94.8586 40.7532 106.932 31.0763C117.897 22.2911 131.155 16.3509 145.041 14.157C147.82 13.7182 150.618 13.4304 153.425 13.2983C157.634 13.1001 161.918 13.2464 165.947 14.4825C168.962 15.4026 171.76 16.9077 174.539 18.4081C178.271 20.418 182.017 22.4421 185.438 24.9474C191.024 29.0381 195.874 35.049 202.083 38.1347C209.033 41.593 216.073 43.3529 222.083 48.6514C227.179 53.1431 230.883 59.069 233.534 65.3536C236.714 72.8885 233.218 78.2719 232.308 86.3116C231.558 92.9406 232.265 99.3856 229.354 105.571C226.632 111.36 219.309 116.177 219.309 116.177C219.309 116.177 218.602 104.363 218.389 102.905C217.823 99.112 217.172 93.0869 214.558 85.0047C212.029 77.1112 207.028 72.2752 200.522 67.4579C197.912 65.5282 195.327 63.5277 193.128 61.112C190.576 58.3047 189.604 55.3417 188.07 52.5627C185.206 58.9511 180.356 63.9712 174.232 67.6136C163.692 73.8746 151.693 76.8612 140.125 80.5885C129.094 84.1413 115.166 88.5291 108.848 99.0553C102.644 109.379 100.02 115.602 100.02 115.602Z" fill="#192C4A"/>
<path d="M208.58 99.3241C207.849 102.16 200.734 102.783 192.69 100.711C184.645 98.64 178.715 94.6626 179.446 91.8223C180.177 88.9867 187.292 88.3639 195.337 90.4352C203.381 92.5064 209.312 96.4838 208.58 99.3241Z" fill="#192C4A"/>
<path d="M169.486 21.5313C170.08 24.4896 170.217 27.5422 169.929 30.5524C169.637 33.572 168.896 36.5398 167.849 39.3848C166.796 42.2346 165.405 44.9569 163.758 47.5094C162.111 50.0667 160.201 52.4588 158.073 54.6386C157.011 55.7332 155.888 56.7664 154.718 57.7431C153.52 58.682 152.354 59.6681 151.09 60.5173L150.16 61.1779L149.693 61.5082L149.217 61.8148L147.292 63.0463C146.65 63.4521 145.985 63.8154 145.329 64.2023L144.343 64.7778L143.343 65.3157C138.002 68.2174 132.401 70.5434 126.853 72.8931C124.078 74.0631 121.314 75.2427 118.577 76.4741L116.539 77.4225L115.524 77.8943L114.519 78.3944C113.849 78.7294 113.175 79.0503 112.509 79.3947L110.537 80.4515C109.867 80.7865 109.254 81.1923 108.617 81.5697L107.664 82.1406C107.348 82.3341 107.027 82.5181 106.73 82.7398C105.517 83.5938 104.272 84.3959 103.125 85.3443C102.545 85.8066 101.946 86.2454 101.379 86.7267L99.6997 88.1893C99.4213 88.4346 99.1335 88.6753 98.8599 88.9253L98.0531 89.6991L96.4395 91.2419C92.2356 95.4647 88.4092 100.084 84.8376 104.887C81.2754 109.709 77.9632 114.719 74.7219 119.787L73.5093 121.688L72.9006 122.641L72.3298 123.594L71.1927 125.5L70.1641 127.468C69.9943 127.798 69.8102 128.119 69.6593 128.459L69.1969 129.468C68.8949 130.143 68.5647 130.808 68.2863 131.497C67.7532 132.875 67.1728 134.243 66.7388 135.659C64.8138 141.273 63.8229 147.18 63.5446 153.102C63.3653 159.028 63.922 164.996 65.4696 170.729C65.8234 172.172 66.2622 173.592 66.7293 175.013C67.1964 176.433 67.7012 177.848 68.1966 179.268C69.1922 182.109 70.2066 184.973 71.0228 187.917C71.8391 190.851 72.4477 193.895 72.5421 196.999C72.6459 200.094 72.141 203.255 70.9521 206.134C70.3623 207.573 69.6216 208.936 68.8006 210.243C67.9513 211.526 67.0454 212.767 66.0641 213.933C64.1155 216.278 61.9923 218.434 59.9635 220.642C58.9396 221.741 57.9488 222.864 57.0099 224.025L56.3164 224.898L55.6417 225.799C55.1887 226.398 54.7547 227.011 54.3111 227.62C52.5607 230.059 50.9141 232.579 49.3288 235.136C47.7435 237.693 46.2195 240.293 44.7286 242.911C43.2282 245.525 41.7514 248.153 40.2747 250.781C41.6618 248.101 43.0395 245.422 44.4502 242.756C45.8704 240.095 47.3283 237.457 48.8522 234.848C50.3762 232.244 51.9615 229.672 53.66 227.167C54.0847 226.54 54.5093 225.917 54.9481 225.299L55.6039 224.374L56.2928 223.459C57.2175 222.251 58.1942 221.085 59.1944 219.953C61.1902 217.679 63.2709 215.499 65.1251 213.168C66.0641 212.012 66.9133 210.795 67.706 209.554C68.4656 208.29 69.1403 206.988 69.6687 205.624C70.7209 202.902 71.1597 199.976 71.0228 197.051C70.8954 194.126 70.2774 191.215 69.4422 188.365C67.7862 182.647 65.262 177.136 63.6861 171.21C62.0442 165.303 61.4167 159.15 61.5535 153.031C61.7941 146.916 62.8227 140.815 64.7854 135.007C65.2337 133.545 65.8234 132.129 66.3755 130.7C66.6633 129.987 67.003 129.299 67.3096 128.6L67.7862 127.553C67.9419 127.204 68.1353 126.869 68.3052 126.529L69.3715 124.486L70.5416 122.504L71.1266 121.518L71.7353 120.561L72.9478 118.654C76.2175 113.573 79.5721 108.534 83.1862 103.665C86.8239 98.8146 90.7022 94.1106 95.0429 89.8265L96.7084 88.2601L97.5435 87.4769C97.8266 87.2174 98.1192 86.9767 98.407 86.7267L100.148 85.2357C100.738 84.7498 101.356 84.2968 101.96 83.825C103.144 82.8625 104.441 82.0368 105.701 81.1687C106.013 80.9422 106.348 80.7535 106.678 80.56L107.669 79.9703C108.329 79.5881 108.98 79.1682 109.66 78.8332L111.684 77.7716C112.358 77.4272 113.047 77.1064 113.727 76.7714L114.755 76.276L115.789 75.8042C116.477 75.4928 117.166 75.1719 117.86 74.87C120.639 73.6574 123.437 72.5156 126.23 71.3785C131.811 69.1138 137.384 66.8538 142.701 64.1031L143.696 63.5889L144.678 63.0416C145.324 62.6736 145.989 62.3291 146.626 61.9422L148.537 60.7674L149.014 60.4749L149.476 60.1635L150.401 59.5313C151.656 58.7198 152.812 57.7761 154.006 56.8797C155.171 55.9502 156.28 54.9547 157.346 53.9167C159.483 51.836 161.418 49.543 163.097 47.0754C164.782 44.6078 166.221 41.9656 167.33 39.1866C168.438 36.4076 169.24 33.4965 169.613 30.5194C170.005 27.547 169.977 24.5085 169.486 21.5313Z" fill="#79BBD5"/>
<path d="M113.675 99.3241C114.406 102.16 121.521 102.783 129.565 100.711C137.615 98.64 143.541 94.6626 142.809 91.8223C142.083 88.9867 134.968 88.3639 126.919 90.4352C118.874 92.5064 112.943 96.4838 113.675 99.3241Z" fill="#192C4A"/>
<path d="M149.868 144.878C150.103 143.689 150.66 142.552 151.387 141.542C152.123 140.537 153.033 139.636 154.071 138.919C155.109 138.197 156.256 137.621 157.469 137.22C158.686 136.815 159.979 136.626 161.281 136.635C162.583 136.659 163.909 136.89 165.121 137.437C166.324 137.966 167.358 138.692 168.301 139.466C169.254 140.24 170.16 141.113 170.892 142.132C171.614 143.142 172.175 144.321 172.265 145.538C171.727 144.449 170.972 143.576 170.118 142.821C169.264 142.061 168.325 141.415 167.344 140.811C166.353 140.212 165.371 139.65 164.366 139.282C164.116 139.197 163.866 139.108 163.616 139.042L162.838 138.881C162.583 138.82 162.314 138.815 162.05 138.777C161.786 138.735 161.517 138.744 161.248 138.74L160.847 138.725C160.715 138.735 160.578 138.744 160.446 138.754C160.177 138.777 159.903 138.773 159.639 138.829C159.37 138.867 159.096 138.9 158.832 138.947C158.563 139.013 158.299 139.075 158.03 139.131C156.968 139.41 155.93 139.815 154.94 140.325C153.939 140.83 153.01 141.481 152.156 142.231C151.297 142.986 150.528 143.859 149.868 144.878Z" fill="#E57E67"/>
<path d="M197.823 125.043C206.476 116.904 192.383 108.255 183.749 112.879C178.186 115.861 177.2 123.24 182.876 126.637C184.938 127.869 187.49 128.293 189.948 128.142C192.864 127.963 195.785 126.958 197.823 125.043Z" fill="white"/>
<path d="M196.582 118.588C196.582 122.453 193.449 125.585 189.585 125.585C185.716 125.585 182.583 122.453 182.583 118.588C182.583 114.72 185.716 111.587 189.585 111.587C193.449 111.587 196.582 114.72 196.582 118.588Z" fill="#192C4A"/>
<path d="M188.679 117.168C188.679 118.456 187.636 119.499 186.343 119.499C185.055 119.499 184.013 118.456 184.013 117.168C184.013 115.88 185.055 114.833 186.343 114.833C187.636 114.833 188.679 115.88 188.679 117.168Z" fill="white"/>
<path d="M176.516 119.089C177.469 116.621 179.389 114.531 181.701 113.064C184.022 111.601 186.787 110.752 189.604 110.723C192.421 110.69 195.204 111.478 197.559 112.894C199.899 114.309 201.866 116.362 202.867 118.815C200.767 117.234 198.649 116.036 196.422 115.234C194.204 114.427 191.911 114.012 189.637 114.031C187.367 114.054 185.084 114.517 182.88 115.371C180.668 116.22 178.578 117.461 176.516 119.089Z" fill="#192C4A"/>
<path d="M137.827 155.14C141.45 157.353 145.164 159.032 149.004 160.264C152.831 161.49 156.766 162.288 160.644 162.387C161.13 162.42 161.611 162.387 162.097 162.392C162.578 162.387 163.069 162.335 163.555 162.311C164.041 162.278 164.532 162.222 165.018 162.179C165.508 162.118 165.994 162.038 166.485 161.981C168.443 161.684 170.392 161.24 172.321 160.684C174.246 160.122 176.148 159.433 178.007 158.608C179.875 157.787 181.682 156.81 183.47 155.649C182.281 157.423 180.71 158.943 178.993 160.259C177.271 161.575 175.374 162.665 173.388 163.566C171.406 164.463 169.316 165.147 167.174 165.624C166.631 165.737 166.093 165.836 165.546 165.935C164.999 166.01 164.456 166.095 163.904 166.157C163.347 166.199 162.795 166.26 162.239 166.275L161.394 166.298C161.116 166.312 160.837 166.308 160.559 166.294C156.077 166.176 151.769 164.982 147.853 163.104C145.9 162.156 144.041 161.023 142.337 159.702C140.639 158.372 139.077 156.871 137.827 155.14Z" fill="#EB4447"/>
<path d="M124.092 125.043C115.439 116.904 129.532 108.256 138.167 112.88C143.729 115.861 144.715 123.241 139.04 126.638C136.978 127.874 134.425 128.294 131.967 128.143C129.051 127.963 126.131 126.958 124.092 125.043Z" fill="white"/>
<path d="M125.329 118.588C125.329 122.453 128.466 125.585 132.33 125.585C136.195 125.585 139.332 122.453 139.332 118.588C139.332 114.72 136.195 111.587 132.33 111.587C128.466 111.587 125.329 114.72 125.329 118.588Z" fill="#192C4A"/>
<path d="M125.909 117.168C125.909 118.456 126.957 119.499 128.245 119.499C129.533 119.499 130.575 118.456 130.575 117.168C130.575 115.88 129.533 114.833 128.245 114.833C126.957 114.833 125.909 115.88 125.909 117.168Z" fill="white"/>
<path d="M145.4 119.089C143.338 117.461 141.248 116.22 139.03 115.371C136.832 114.517 134.548 114.054 132.274 114.031C130.004 114.012 127.711 114.427 125.494 115.234C123.267 116.036 121.144 117.234 119.049 118.815C120.049 116.362 122.017 114.309 124.357 112.894C126.706 111.478 129.495 110.69 132.312 110.723C135.128 110.752 137.893 111.601 140.214 113.064C142.526 114.531 144.447 116.621 145.4 119.089Z" fill="#192C4A"/>
<path d="M111.967 139.145C110.603 142.972 113.783 147.605 119.077 149.492C124.366 151.384 129.764 149.818 131.132 145.996C132.5 142.174 129.315 137.541 124.022 135.649C118.733 133.757 113.335 135.324 111.967 139.145Z" fill="#F37379"/>
<path d="M209.948 139.145C211.312 142.972 208.132 147.605 202.838 149.492C197.544 151.384 192.147 149.818 190.783 145.996C189.415 142.174 192.6 137.541 197.889 135.649C203.183 133.757 208.58 135.324 209.948 139.145Z" fill="#F37379"/>
<path d="M265.637 331.599L264.391 300.284C264.391 300.284 261.98 317.317 258.041 320.709C254.106 324.101 226.731 329.659 226.731 329.659L265.637 331.599Z" fill="#EBF7F9"/>
<path d="M116.194 348.414C111.971 344.993 107.692 341.643 103.417 338.289C99.5862 335.288 95.7221 332.264 91.3578 330.108C83.5068 326.229 74.5565 325.399 65.8373 324.625C59.2319 324.045 52.4331 323.479 46.0919 325.408C45.3181 325.644 44.4547 326.012 44.2094 326.781C43.9027 327.734 44.7189 328.669 45.5493 329.221C47.6725 330.627 50.2674 331.08 52.7775 331.485C57.4862 332.25 62.1949 332.967 66.9178 333.641C55.9104 332.519 44.3462 331.476 34.1786 335.835C33.3199 336.203 32.3904 336.704 32.112 337.595C31.2486 340.355 35.2543 341.134 37.1416 341.36C42.2042 341.964 47.4413 341.912 52.2019 343.738C48.333 343.988 44.483 344.484 40.6755 345.22C38.0097 345.734 35.2921 346.399 33.0557 347.937C32.6169 348.235 32.1828 348.589 31.9658 349.075C31.5034 350.117 32.23 351.339 33.1548 352.009C34.7542 353.165 36.8349 353.335 38.8023 353.467C43.813 353.797 48.8048 354.165 53.8108 354.538C51.1969 354.84 48.5972 355.317 46.0447 355.968C43.9357 356.501 41.7323 357.232 40.3216 358.893C40.1093 359.143 39.9158 359.417 39.8592 359.738C39.7649 360.252 40.048 360.761 40.3877 361.167C41.6521 362.672 43.6951 363.304 45.6578 363.427C47.6206 363.545 49.5833 363.234 51.5508 363.21C58.7224 363.13 64.5634 362.55 71.4 365.772C76.4626 368.164 81.0817 371.405 86.1207 373.849C90.3575 375.902 94.8492 377.374 99.3268 378.837C110.631 382.531 121.941 386.225 133.25 389.924C135.845 390.773 138.53 391.632 141.252 391.373C144.866 391.028 148.782 387.409 149.179 383.71C149.613 379.624 145.9 376.058 143.394 373.321C139.374 368.933 135.114 364.772 130.712 360.776C126.008 356.501 121.139 352.41 116.194 348.414Z" fill="#EBF7F9"/>
<path d="M115.086 337.85C110.443 335.024 105.758 332.268 101.073 329.518C96.8783 327.05 92.6413 324.568 88.027 323.011C79.7325 320.218 70.7491 320.582 62.0064 320.983C55.3821 321.28 48.5691 321.624 42.5393 324.384C41.8033 324.724 41.0012 325.201 40.8549 325.998C40.6804 326.979 41.6146 327.8 42.511 328.239C44.8041 329.348 47.4321 329.452 49.9799 329.518C54.7452 329.65 59.5105 329.73 64.2758 329.773C53.2212 330.126 41.6193 330.631 32.1217 336.307C31.3196 336.784 30.4656 337.402 30.3099 338.327C29.8192 341.176 33.8957 341.412 35.7971 341.384C40.8927 341.308 46.0779 340.558 51.0414 341.738C47.2386 342.502 43.4877 343.502 39.8122 344.743C37.2361 345.607 34.6364 346.626 32.6218 348.447C32.2254 348.806 31.8433 349.211 31.6923 349.721C31.3762 350.816 32.2585 351.929 33.2635 352.472C34.9997 353.406 37.0852 353.297 39.0526 353.165C44.068 352.825 49.0598 352.523 54.0705 352.226C51.518 352.873 49.0079 353.694 46.5639 354.676C44.5445 355.491 42.4591 356.506 41.2796 358.341C41.105 358.615 40.9493 358.912 40.9352 359.237C40.9116 359.761 41.2607 360.228 41.6476 360.582C43.1008 361.908 45.2145 362.262 47.1773 362.12C49.1353 361.979 51.0414 361.408 52.9853 361.125C60.0814 360.091 65.7951 358.733 72.9997 361.021C78.3359 362.715 83.3466 365.314 88.664 367.065C93.1368 368.537 97.7841 369.391 102.417 370.245C114.114 372.401 125.815 374.562 137.516 376.718C140.2 377.214 142.979 377.704 145.636 377.086C149.179 376.265 152.576 372.156 152.472 368.438C152.359 364.333 148.207 361.29 145.357 358.912C140.79 355.1 136.015 351.542 131.118 348.164C125.885 344.555 120.516 341.153 115.086 337.85Z" fill="#F89D7D"/>
<path d="M113.722 382.871C114.118 368.372 117.435 353.958 123.446 340.756C124.05 339.421 124.748 338.029 125.985 337.241C127.542 336.246 129.547 336.453 131.377 336.704C146.494 338.794 161.588 341.035 176.653 343.465C199.385 347.135 221.937 351.769 244.547 356.142C247.241 356.666 249.987 357.19 252.709 356.831C264.155 355.331 264.019 340.624 264.16 332.018C264.467 312.768 263.136 293.533 261.811 274.325C270.766 282.247 279.659 290.513 285.901 300.709C289.676 306.871 292.398 313.608 294.922 320.379C305.472 348.622 314.89 379.643 317.126 409.797C318.433 427.386 298.046 439.809 282.929 439.649C258.215 439.389 183.81 421.852 160.153 415.114C144.683 410.708 131.967 407.457 117.129 401.243C116.223 400.866 115.265 400.436 114.746 399.601C114.321 398.917 114.265 398.072 114.232 397.27C114.123 394.77 113.656 385.371 113.722 382.871Z" fill="white"/>
<path d="M200.309 347.503C204.919 344.63 209.58 341.827 214.233 339.03C228.963 330.174 247.411 329.527 264.202 330.702C264.297 333.137 264.273 335.562 264.372 338.001C264.641 344.857 264.858 352.009 262.004 358.247C261.244 359.903 260.263 361.488 258.918 362.715C257.602 363.918 255.993 364.744 254.365 365.461C249.652 367.551 245.193 368.594 240.14 368.73C235.063 368.872 229.335 370.264 224.811 372.552C218.984 375.496 212.827 377.907 206.806 380.422C198.073 384.069 187.566 384.786 178.276 386.598C175.596 387.122 172.821 387.641 170.156 387.051C166.608 386.263 163.168 382.191 163.234 378.473C163.305 374.364 167.424 371.278 170.25 368.872C174.779 365.012 179.516 361.408 184.376 357.982C189.575 354.321 194.912 350.863 200.309 347.503Z" fill="#EBF7F9"/>
<path d="M210.972 400.549C210.312 386.065 206.74 371.707 200.493 358.619C199.861 357.293 199.139 355.916 197.889 355.147C196.313 354.184 194.313 354.425 192.487 354.71C162.687 359.374 80.2657 372.958 52.6881 385.178C35.7217 392.694 9.29531 409.519 8.08275 431.137C7.09665 448.745 27.7055 460.8 42.813 460.371C67.5219 459.663 141.597 440.791 165.126 433.624C180.517 428.939 193.171 425.461 207.896 418.979C208.793 418.587 209.746 418.139 210.251 417.299C210.661 416.605 210.704 415.761 210.722 414.954C210.784 412.453 211.086 403.05 210.972 400.549Z" fill="#EBF7F9"/>
<path d="M200.309 342.214C204.919 339.341 209.58 336.543 214.233 333.741C228.963 324.885 247.411 324.243 264.202 325.413C264.297 327.852 264.273 330.273 264.372 332.712C264.641 339.568 264.858 346.72 262.004 352.958C261.244 354.617 260.263 356.199 258.918 357.43C257.602 358.629 255.993 359.455 254.365 360.172C249.652 362.262 245.193 363.304 240.14 363.446C235.063 363.583 229.335 364.975 224.811 367.263C218.984 370.207 212.827 372.618 206.806 375.133C198.073 378.78 187.566 379.497 178.276 381.309C175.596 381.833 172.821 382.352 170.156 381.762C166.608 380.974 163.168 376.902 163.234 373.184C163.305 369.075 167.424 365.994 170.25 363.583C174.779 359.723 179.516 356.123 184.376 352.693C189.575 349.032 194.912 345.574 200.309 342.214Z" fill="#F89D7D"/>
<path d="M284.075 496.979L233.789 487.981C233.789 487.981 240.371 580.009 267.534 576.532C294.691 573.059 284.075 496.979 284.075 496.979Z" fill="#EBF7F9"/>
<path d="M36.5899 496.979L86.8712 487.981C86.8712 487.981 80.294 580.009 53.1317 576.532C25.974 573.059 36.5899 496.979 36.5899 496.979Z" fill="#EBF7F9"/>
<path d="M206.188 395.133C205.533 380.648 201.956 366.296 195.709 353.203C195.077 351.877 194.36 350.499 193.11 349.73C191.534 348.768 189.533 349.008 187.707 349.296C157.908 353.958 75.4815 367.546 47.904 379.766C30.9422 387.282 4.5159 404.102 3.30334 425.721C2.31252 443.334 22.9261 455.384 38.0336 454.954C62.7378 454.251 136.813 435.374 160.347 428.212C175.737 423.527 188.387 420.045 203.112 413.567C204.013 413.17 204.966 412.722 205.466 411.882C205.882 411.189 205.924 410.344 205.943 409.542C206.004 407.037 206.302 397.634 206.188 395.133Z" fill="white"/>
<path d="M193.109 349.73C192.321 349.282 191.411 349.122 190.524 349.126C189.627 349.126 188.745 349.273 187.858 349.433L182.541 350.405L171.911 352.349L150.651 356.265C143.574 357.605 136.492 358.912 129.424 360.304C122.351 361.672 115.288 363.064 108.239 364.536C101.186 365.98 94.151 367.499 87.1398 369.108C80.1192 370.693 73.1411 372.434 66.2055 374.326C64.4692 374.784 62.7517 375.307 61.0249 375.803L58.4535 376.6L57.1702 377.001L55.8916 377.421C55.0423 377.714 54.1836 377.973 53.3438 378.285L50.8196 379.2L48.3284 380.195C47.498 380.54 46.6818 380.903 45.8608 381.266C39.3073 384.196 32.9897 387.678 26.9882 391.67C32.7208 387.291 38.9393 383.545 45.422 380.332C46.2335 379.931 47.0498 379.54 47.8755 379.167L50.3713 378.077L52.8955 377.072C53.7354 376.728 54.5894 376.44 55.4386 376.119L56.7125 375.652L58.0006 375.218L60.572 374.354C62.2988 373.816 64.0162 373.25 65.7478 372.745C69.2062 371.689 72.6929 370.736 76.1843 369.811C77.9253 369.348 79.6805 368.914 81.4262 368.461L86.6822 367.169C93.7028 365.494 100.756 363.956 107.815 362.479C114.883 361.04 121.965 359.653 129.056 358.35C136.152 357.067 143.253 355.807 150.368 354.655C157.483 353.481 164.612 352.387 171.741 351.334C175.313 350.825 178.88 350.311 182.451 349.829L187.811 349.117C188.707 349.008 189.618 348.914 190.529 348.966C191.435 349.018 192.35 349.235 193.109 349.73Z" fill="#EBF7F9"/>
<path d="M75.6984 73.8508C77.1044 69.9017 79.3361 66.2404 82.0443 62.9943C84.7761 59.753 87.9656 56.9174 91.3957 54.4451C94.8164 51.9444 98.4871 49.826 102.224 47.8774C105.975 45.9524 109.83 44.2538 113.698 42.6308C117.577 41.0502 121.446 39.4885 125.267 37.8419C129.103 36.2188 132.863 34.4543 136.525 32.5152C137.435 32.0245 138.327 31.5007 139.233 30.9959C140.125 30.4722 140.993 29.9107 141.885 29.3823C142.757 28.8256 143.602 28.2311 144.465 27.6555C145.31 27.0563 146.122 26.4146 146.957 25.8012C150.226 23.2534 153.194 20.3046 155.732 16.9736C153.581 20.5688 150.764 23.7772 147.622 26.5939C146.815 27.2686 146.013 27.9622 145.192 28.6227C144.347 29.2549 143.512 29.9107 142.654 30.5241C141.786 31.1185 140.917 31.7225 140.026 32.2934C139.129 32.8454 138.237 33.4116 137.327 33.9447C136.412 34.4637 135.496 34.9969 134.571 35.5017C133.637 35.9924 132.708 36.4831 131.769 36.9596L128.929 38.3421L126.069 39.6679C122.238 41.3853 118.355 42.9658 114.5 44.5747C110.646 46.1506 106.838 47.8208 103.12 49.6561C99.3882 51.4726 95.7789 53.5062 92.3346 55.785C88.9045 58.0875 85.6585 60.673 82.8134 63.6785C79.9542 66.6651 77.5338 70.0857 75.6984 73.8508Z" fill="#79BBD5"/>
</svg>
